<svg xmlns="http://www.w3.org/2000/svg" width="117" height="40" viewBox="0 0 117 40">
  <g id="Group_117387" data-name="Group 117387" transform="translate(-24 -22.896)">
    <g id="Group_3" data-name="Group 3" transform="translate(58.603 22.896)">
      <path id="Path_12" data-name="Path 12" d="M202.667,27.1h3.779l7.986,18.752h-4.28l-1.705-4.169h-7.875l-1.705,4.169H194.7Zm4.318,10.987L204.5,32.047l-2.482,6.041Z" transform="translate(-194.7 -26.433)" fill="#465159"/>
      <path id="Path_13" data-name="Path 13" d="M315.4,23.5h4.039V42.918H315.4Z" transform="translate(-293.035 -23.5)" fill="#465159"/>
      <path id="Path_14" data-name="Path 14" d="M358.2,23.5h4.262v3.595H358.2Zm.112,5.17h4.039V42.938h-4.039Z" transform="translate(-327.905 -23.5)" fill="#465159"/>
      <path id="Path_15" data-name="Path 15" d="M401.21,64.951a9.68,9.68,0,0,1-3.094-.52,10.23,10.23,0,0,1-3.021-1.631l1.723-2.668a9.116,9.116,0,0,0,2.339,1.279,6.5,6.5,0,0,0,2.168.426,2.2,2.2,0,0,0,1.3-.3.9.9,0,0,0,.408-.78V60.7a.732.732,0,0,0-.24-.556,2.164,2.164,0,0,0-.65-.408q-.417-.166-.945-.334c-.352-.112-.723-.222-1.111-.352a15.567,15.567,0,0,1-1.5-.52,5.313,5.313,0,0,1-1.372-.8,3.954,3.954,0,0,1-1-1.2,3.639,3.639,0,0,1-.39-1.76v-.056a4.272,4.272,0,0,1,.408-1.927,4.349,4.349,0,0,1,2.78-2.3,6.576,6.576,0,0,1,2.02-.3,9.138,9.138,0,0,1,2.76.444,10.935,10.935,0,0,1,2.576,1.2l-1.538,2.8a12.866,12.866,0,0,0-2.079-.963,5.288,5.288,0,0,0-1.779-.352,1.82,1.82,0,0,0-1.111.278.871.871,0,0,0-.37.7v.056a.656.656,0,0,0,.24.52,2.87,2.87,0,0,0,.63.426,6.421,6.421,0,0,0,.927.37q.528.166,1.111.39c.5.166,1,.352,1.519.574a6.378,6.378,0,0,1,1.389.815,4.136,4.136,0,0,1,1.019,1.17,3.366,3.366,0,0,1,.408,1.667v.056a4.678,4.678,0,0,1-.408,2.057,3.956,3.956,0,0,1-1.149,1.43,5.329,5.329,0,0,1-1.723.834,9.063,9.063,0,0,1-2.243.273Z" transform="translate(-357.969 -45.253)" fill="#465159"/>
      <path id="Path_16" data-name="Path 16" d="M477.19,64.76a7.946,7.946,0,0,1-3.057-.574,7.377,7.377,0,0,1-4.039-3.909,7.138,7.138,0,0,1-.593-2.89V57.33a7.251,7.251,0,0,1,2.224-5.244,7.655,7.655,0,0,1,2.446-1.593,8.4,8.4,0,0,1,6.151-.018,7.377,7.377,0,0,1,4.039,3.909,7.138,7.138,0,0,1,.593,2.89v.056a7.251,7.251,0,0,1-2.224,5.244,7.653,7.653,0,0,1-2.446,1.593A8.075,8.075,0,0,1,477.19,64.76Zm.056-3.5a3.539,3.539,0,0,0,2.706-1.149,3.592,3.592,0,0,0,.723-1.241,4.4,4.4,0,0,0,.26-1.5v-.038a4.4,4.4,0,0,0-.26-1.5,3.609,3.609,0,0,0-.78-1.241,3.811,3.811,0,0,0-4.28-.871,3.46,3.46,0,0,0-1.149.834,3.592,3.592,0,0,0-.723,1.241,4.4,4.4,0,0,0-.26,1.5v.038a4.4,4.4,0,0,0,.26,1.5,3.61,3.61,0,0,0,.78,1.241,3.791,3.791,0,0,0,1.2.871,3.436,3.436,0,0,0,1.517.316Z" transform="translate(-418.581 -45.008)" fill="#465159"/>
      <path id="Path_17" data-name="Path 17" d="M568.6,50.262h4.039v2.02a8.232,8.232,0,0,1,.76-.871,4.438,4.438,0,0,1,.927-.723,4.332,4.332,0,0,1,1.111-.5A4.591,4.591,0,0,1,576.827,50a4.528,4.528,0,0,1,3.577,1.409,5.679,5.679,0,0,1,1.259,3.891V64.53h-4.039V56.563a3.189,3.189,0,0,0-.63-2.168,2.306,2.306,0,0,0-1.82-.723,2.442,2.442,0,0,0-1.853.723,3.1,3.1,0,0,0-.685,2.168v7.949H568.6Z" transform="translate(-499.319 -45.092)" fill="#465159"/>
    </g>
    <g id="Group_2" data-name="Group 2" transform="translate(24 22.896)">
      <g id="Group_1" data-name="Group 1">
        <path id="Path_1" data-name="Path 1" d="M54.741,9.4,50.9,2.8h7.681Z" transform="translate(-43.219 -2.8)" fill="#f58220"/>
        <path id="Path_2" data-name="Path 2" d="M79.141,2.8,75.3,9.4h7.681Z" transform="translate(-63.779 -2.8)" fill="#ea1c2d"/>
        <path id="Path_3" data-name="Path 3" d="M30.341,2.8,26.5,9.4h7.681Z" transform="translate(-22.659 -2.8)" fill="#ffd200"/>
        <path id="Path_4" data-name="Path 4" d="M30.341,51.279,26.5,44.7h7.681Z" transform="translate(-22.659 -38.105)" fill="#c1d52f"/>
        <path id="Path_5" data-name="Path 5" d="M79.141,51.279,75.3,44.7h7.681Z" transform="translate(-63.779 -38.105)" fill="#ac1e2d"/>
        <path id="Path_6" data-name="Path 6" d="M5.941,44.7,2.1,51.279H9.781Z" transform="translate(-2.1 -38.105)" fill="#00a94f"/>
        <path id="Path_7" data-name="Path 7" d="M103.541,44.7,99.7,51.279h7.681Z" transform="translate(-84.338 -38.105)" fill="#c9187e"/>
        <path id="Path_8" data-name="Path 8" d="M5.941,93.079,2.1,86.5H9.781Z" transform="translate(-2.1 -73.326)" fill="#008445"/>
        <path id="Path_9" data-name="Path 9" d="M103.541,93.079,99.7,86.5h7.681Z" transform="translate(-84.338 -73.326)" fill="#873795"/>
        <path id="Path_10" data-name="Path 10" d="M54.741,86.5,50.9,93.079h7.681Z" transform="translate(-43.219 -73.326)" fill="#465159"/>
        <path id="Path_11" data-name="Path 11" d="M127.941,86.5,124.1,93.079h7.681Z" transform="translate(-104.898 -73.326)" fill="#f99d25"/>
        <path id="Path_18" data-name="Path 18" d="M148.5,86.5l3.841,6.579h.016l2.785-6.579Z" transform="translate(-125.456 -73.326)" fill="#e32726"/>
      </g>
    </g>
  </g>
</svg>
